<svg xmlns="http://www.w3.org/2000/svg" width="24" height="24" fill="#ffffff" viewBox="0 0 24 24">
  <path d="M23.953 4.57a10.004 10.004 0 01-2.825.775A4.958 4.958 0 0023.337 3.1a9.93 9.93 0 01-3.127 1.195 4.922 4.922 0 00-8.388 4.482A13.978 13.978 0 011.671 3.15a4.822 4.822 0 001.523 6.573 4.903 4.903 0 01-2.23-.616v.06a4.935 4.935 0 003.946 4.827 4.996 4.996 0 01-2.224.085 4.937 4.937 0 004.604 3.417A9.869 9.869 0 010 21.542a13.978 13.978 0 007.548 2.209c9.056 0 14.01-7.496 14.01-13.986 0-.213-.005-.425-.014-.637A10.012 10.012 0 0024 4.59l-.047-.02z"></path>
</svg>
