<svg xmlns="http://www.w3.org/2000/svg" width="24" height="24" fill="#ffffff" viewBox="0 0 24 24">
  <path d="M22.23 0H1.77C.79 0 0 .774 0 1.727v20.546C0 23.226.79 24 1.77 24h20.46c.98 0 1.77-.774 1.77-1.727V1.727C24 .774 23.21 0 22.23 0zM7.06 20.452H3.56V9h3.5v11.452zM5.31 7.583a2.031 2.031 0 110-4.062 2.031 2.031 0 010 4.062zM20.45 20.452h-3.5v-5.605c0-1.336-.027-3.053-1.858-3.053-1.86 0-2.144 1.45-2.144 2.95v5.708h-3.5V9h3.36v1.561h.05c.468-.884 1.613-1.818 3.322-1.818 3.554 0 4.21 2.295 4.21 5.278v6.431z"></path>
</svg>
